<?xml version="1.0" encoding="UTF-8"?>
<svg id="Layer_1" data-name="Layer 1" xmlns="http://www.w3.org/2000/svg" viewBox="0 0 1080 1080">
  <defs>
    <style>
      .cls-1 {
        fill: #09253f;
      }

      .cls-2 {
        fill: none;
        stroke: #09253f;
        stroke-miterlimit: 10;
        stroke-width: 4px;
      }
    </style>
  </defs>
  <g>
    <g id="left-building">
      <path class="cls-1" d="M361.88,278.51v194.31l40.91-30.55,44.82-33.45,4.27-3.2v-.03l41-30.61v-194.72l-131,98.25ZM451.88,356.29l-49,36.75v-95.96l49-36.75v95.96Z"/>
      <polygon class="cls-1" points="362.88 487.69 403.88 457.1 403.88 628 362.88 628 362.88 487.69"/>
      <line class="cls-1" x1="387.04" y1="443.51" x2="382.76" y2="446.7"/>
      <path class="cls-1" d="M520.88,287.47l49-36.75v49l-49,36.75v-49Z"/>
    </g>
    <g id="center-building">
      <path class="cls-1" d="M452.88,628V29.82l156,90.14v508.05h-41V145.44l-74-42.77v525.34h-41Z"/>
    </g>
    <g id="right-building">
      <polygon class="cls-1" points="717.88 324.81 717.88 628 676.88 628 676.88 352.1 648.88 337.19 649.07 288.1 717.88 324.81"/>
    </g>
    <line class="cls-1" x1="648.88" y1="288" x2="648.69" y2="337"/>
    <path class="cls-1" d="M348.78,628.23l2.37,23.35-124.41,12.61c18.88-15.81,53.33-28.99,122.05-35.96Z"/>
    <path class="cls-1" d="M731.22,628.23l-2.37,23.35,124.41,12.61c-18.88-15.81-53.33-28.99-122.05-35.96Z"/>
  </g>
  <g>
    <path class="cls-1" d="M288.83,735.08h-15.3v-4.2c0-4.26-.83-7.94-2.48-11.04-1.65-3.1-4.42-4.65-8.33-4.65-2.1,0-3.82.49-5.17,1.46-1.35.97-2.4,2.22-3.15,3.74-.75,1.52-1.28,3.28-1.58,5.29s-.45,4.1-.45,6.29c0,2.55.08,4.71.22,6.48.15,1.76.53,3.28,1.12,4.56.6,1.28,1.47,2.4,2.62,3.38,1.15.97,2.72,1.95,4.73,2.92l11.7,5.66c3.4,1.58,6.15,3.44,8.25,5.56,2.1,2.13,3.72,4.62,4.88,7.48,1.15,2.86,1.92,6.14,2.32,9.85.4,3.71.6,7.94.6,12.68,0,5.47-.45,10.55-1.35,15.23-.9,4.68-2.38,8.7-4.42,12.04-2.05,3.35-4.78,5.99-8.17,7.94-3.4,1.94-7.55,2.92-12.45,2.92-3.7,0-7.15-.79-10.35-2.37-3.2-1.58-5.95-3.74-8.25-6.48-2.3-2.74-4.12-5.99-5.48-9.76-1.35-3.77-2.02-7.84-2.02-12.22v-6.93h15.3v5.84c0,3.41.83,6.48,2.47,9.21,1.65,2.74,4.43,4.1,8.33,4.1,2.6,0,4.62-.46,6.08-1.37,1.45-.91,2.55-2.19,3.3-3.83s1.22-3.68,1.42-6.11c.2-2.43.3-5.11.3-8.03,0-3.4-.1-6.2-.3-8.39-.2-2.19-.62-3.95-1.27-5.29-.65-1.34-1.55-2.43-2.7-3.28-1.15-.85-2.68-1.76-4.58-2.74l-10.95-5.47c-6.6-3.28-11.02-7.63-13.27-13.04-2.25-5.41-3.38-12.19-3.38-20.34,0-4.86.55-9.49,1.65-13.86,1.1-4.38,2.72-8.15,4.88-11.31,2.15-3.16,4.88-5.68,8.18-7.57,3.3-1.88,7.15-2.83,11.55-2.83,3.8,0,7.27.85,10.42,2.55,3.15,1.7,5.85,3.95,8.1,6.75,2.25,2.8,3.98,5.93,5.18,9.39,1.2,3.47,1.8,7.02,1.8,10.67v9.12Z"/>
    <path class="cls-1" d="M340.28,715.19h-17.7v-17.51h50.7v17.51h-17.7v112.37h-15.3v-112.37Z"/>
    <path class="cls-1" d="M418.72,697.68h12.75l23.85,129.89h-15.3l-4.5-27.91h-20.85l-4.5,27.91h-15.3l23.85-129.89ZM425.17,735.08h-.3l-7.5,47.07h15.3l-7.5-47.07Z"/>
    <path class="cls-1" d="M492.82,697.68h14.7l19.65,68.77h.3l19.5-68.77h14.85v129.89h-15.3v-78.99h-.3l-15.15,55.82h-7.65l-15-55.82h-.3v78.99h-15.3v-129.89Z"/>
    <path class="cls-1" d="M606.22,697.68h22.35c4.9,0,9.08.91,12.53,2.74s6.27,4.26,8.47,7.3c2.2,3.04,3.77,6.54,4.73,10.49.95,3.95,1.42,8.06,1.42,12.31v4.74c0,3.53-.23,6.51-.67,8.94-.45,2.43-1.12,4.56-2.03,6.38s-2,3.44-3.3,4.83c-1.3,1.4-2.8,2.71-4.5,3.92,3.6,2.07,6.25,5.14,7.95,9.21,1.7,4.08,2.55,9.52,2.55,16.33v7.3c0,11.43-2.28,20.19-6.83,26.27-4.55,6.08-11.83,9.12-21.83,9.12h-20.85v-129.89ZM621.52,750.95h6.9c5.1,0,8.52-1.55,10.27-4.65,1.75-3.1,2.62-7.63,2.62-13.59s-.97-10.22-2.92-13.13-5.47-4.38-10.58-4.38h-6.3v35.75ZM621.52,808.96h6.6c3.1,0,5.52-.55,7.28-1.64,1.75-1.09,3.08-2.61,3.97-4.56.9-1.94,1.45-4.26,1.65-6.93.2-2.67.3-5.59.3-8.76s-.15-6.14-.45-8.57c-.3-2.43-.93-4.47-1.88-6.11-.95-1.64-2.28-2.89-3.97-3.74-1.7-.85-3.95-1.28-6.75-1.28h-6.75v41.59Z"/>
    <path class="cls-1" d="M700.12,697.68h15.3v55.64h18.9v-55.64h15.3v129.89h-15.3v-57.83h-18.9v57.83h-15.3v-129.89Z"/>
    <path class="cls-1" d="M810.97,697.68h12.75l23.85,129.89h-15.3l-4.5-27.91h-20.85l-4.5,27.91h-15.3l23.85-129.89ZM817.42,735.08h-.3l-7.5,47.07h15.3l-7.5-47.07Z"/>
  </g>
  <g>
    <path class="cls-1" d="M161.94,938.6h21.29v5.94h-15.33v6.76h11.52v5.98h-11.52v7.59h15.5v5.93h-21.46v-32.2Z"/>
    <path class="cls-1" d="M197.27,949.27h-.13s.09,3.91.09,8v13.53h-5.95v-32.2h6.04l14.35,21.21h.13s-.09-4.05-.09-7.59v-13.62h5.95v32.2h-6.04l-14.35-21.53Z"/>
    <path class="cls-1" d="M249.73,970.8c0-2.44.04-2.76.04-3.08h-.13c-1.58,1.7-5.01,3.68-9.29,3.68-8.39,0-15.42-6.67-15.42-16.75s6.64-16.7,15.55-16.7c6.81,0,11.91,4.05,13.83,9.11l-5.87,1.75c-1.07-2.07-3.55-4.83-8.22-4.83-5.57,0-9.29,4.23-9.29,10.67s4.07,10.72,9.89,10.72c4.63,0,7.67-2.44,8.65-4.14v-2.53h-7.97v-5.98h13.54v18.08h-5.31Z"/>
    <path class="cls-1" d="M263.09,938.6h5.95v32.2h-5.95v-32.2Z"/>
    <path class="cls-1" d="M283.69,949.27h-.13s.09,3.91.09,8v13.53h-5.95v-32.2h6.04l14.35,21.21h.13s-.09-4.05-.09-7.59v-13.62h5.95v32.2h-6.04l-14.35-21.53Z"/>
    <path class="cls-1" d="M312.72,938.6h21.29v5.94h-15.33v6.76h11.52v5.98h-11.52v7.59h15.5v5.93h-21.46v-32.2Z"/>
    <path class="cls-1" d="M342.06,938.6h21.29v5.94h-15.33v6.76h11.52v5.98h-11.52v7.59h15.5v5.93h-21.46v-32.2Z"/>
    <path class="cls-1" d="M381.63,959.49h-4.28v11.32h-5.95v-32.2h10.62c7.41,0,11.74,4.05,11.74,10.58,0,4.65-2.23,7.77-6.08,9.06l7.07,12.56h-7.07l-6.04-11.32ZM382.45,954.33c3.25,0,5.23-1.47,5.23-4.83s-1.88-5.06-5.31-5.06h-5.01v9.89h5.1Z"/>
    <path class="cls-1" d="M401.67,938.6h5.95v32.2h-5.95v-32.2Z"/>
    <path class="cls-1" d="M422.27,949.27h-.13s.09,3.91.09,8v13.53h-5.95v-32.2h6.04l14.35,21.21h.13s-.09-4.05-.09-7.59v-13.62h5.95v32.2h-6.04l-14.35-21.53Z"/>
    <path class="cls-1" d="M474.74,970.8c0-2.44.04-2.76.04-3.08h-.13c-1.58,1.7-5.01,3.68-9.29,3.68-8.39,0-15.42-6.67-15.42-16.75s6.64-16.7,15.55-16.7c6.81,0,11.91,4.05,13.83,9.11l-5.87,1.75c-1.07-2.07-3.55-4.83-8.22-4.83-5.57,0-9.29,4.23-9.29,10.67s4.07,10.72,9.89,10.72c4.63,0,7.67-2.44,8.65-4.14v-2.53h-7.97v-5.98h13.54v18.08h-5.31Z"/>
    <path class="cls-1" d="M506.25,970.8h-6.21l15.03-32.2h6.04l-14.86,32.2Z"/>
    <path class="cls-1" d="M570.11,961.42c-2.31,6.21-7.75,9.98-14.22,9.98-8.87,0-15.5-6.72-15.5-16.79s6.64-16.65,15.5-16.65c6.94,0,11.91,4.05,13.88,9.11l-5.91,1.75c-1.37-2.48-3.98-4.83-8.22-4.83-5.53,0-9.25,4.23-9.25,10.67s3.94,10.72,9.21,10.72c4.24,0,7.24-2.39,8.65-5.61l5.87,1.66Z"/>
    <path class="cls-1" d="M591.74,937.96c9.04,0,15.72,6.81,15.72,16.75s-6.68,16.7-15.72,16.7-15.72-6.81-15.72-16.7,6.68-16.75,15.72-16.75ZM591.74,965.38c5.53,0,9.72-4.09,9.72-10.67s-4.2-10.72-9.72-10.72-9.72,4.14-9.72,10.72,4.2,10.67,9.72,10.67Z"/>
    <path class="cls-1" d="M620.77,949.27h-.13s.09,3.91.09,8v13.53h-5.95v-32.2h6.04l14.35,21.21h.13s-.09-4.05-.09-7.59v-13.62h5.95v32.2h-6.04l-14.35-21.53Z"/>
    <path class="cls-1" d="M654.09,960.96c.47,3.17,3.08,4.83,6.77,4.83,3.25,0,5.27-1.33,5.27-4,0-3.82-4.03-3.77-7.75-4.74-4.07-1.01-9.17-2.9-9.17-9.62,0-6.26,4.37-9.48,10.96-9.48,5.91,0,10.19,2.62,11.78,8.28l-5.7,1.61c-.77-2.71-2.74-4.23-6.21-4.23s-4.75,1.38-4.75,3.63c0,3.22,3.17,3.82,7.37,4.74,4.45.92,9.51,2.76,9.51,9.8,0,6.39-4.2,9.61-11.31,9.61-5.14,0-11.01-1.7-12.46-8.79l5.7-1.66Z"/>
    <path class="cls-1" d="M693.19,944.54v26.27h-5.95v-26.27h-9.55v-5.94h25.06v5.94h-9.55Z"/>
    <path class="cls-1" d="M720.34,959.49h-4.28v11.32h-5.95v-32.2h10.62c7.41,0,11.74,4.05,11.74,10.58,0,4.65-2.23,7.77-6.08,9.06l7.07,12.56h-7.07l-6.04-11.32ZM721.15,954.33c3.25,0,5.23-1.47,5.23-4.83s-1.88-5.06-5.31-5.06h-5.01v9.89h5.1Z"/>
    <path class="cls-1" d="M764.88,956.77c0,9.48-4.88,14.63-12.68,14.63s-12.72-5.15-12.72-14.63v-18.17h6.04v17.99c0,6.03,2.23,8.79,6.72,8.79s6.72-2.76,6.72-8.79v-17.99h5.91v18.17Z"/>
    <path class="cls-1" d="M801.88,961.42c-2.31,6.21-7.75,9.98-14.22,9.98-8.87,0-15.5-6.72-15.5-16.79s6.64-16.65,15.5-16.65c6.94,0,11.91,4.05,13.88,9.11l-5.91,1.75c-1.37-2.48-3.98-4.83-8.22-4.83-5.53,0-9.25,4.23-9.25,10.67s3.94,10.72,9.21,10.72c4.24,0,7.24-2.39,8.65-5.61l5.87,1.66Z"/>
    <path class="cls-1" d="M822.78,944.54v26.27h-5.95v-26.27h-9.55v-5.94h25.06v5.94h-9.55Z"/>
    <path class="cls-1" d="M839.69,938.6h5.95v32.2h-5.95v-32.2Z"/>
    <path class="cls-1" d="M868.65,937.96c9.04,0,15.72,6.81,15.72,16.75s-6.68,16.7-15.72,16.7-15.72-6.81-15.72-16.7,6.68-16.75,15.72-16.75ZM868.65,965.38c5.53,0,9.72-4.09,9.72-10.67s-4.2-10.72-9.72-10.72-9.72,4.14-9.72,10.72,4.2,10.67,9.72,10.67Z"/>
    <path class="cls-1" d="M897.68,949.27h-.13s.09,3.91.09,8v13.53h-5.95v-32.2h6.04l14.35,21.21h.13s-.09-4.05-.09-7.59v-13.62h5.95v32.2h-6.04l-14.35-21.53Z"/>
    <path class="cls-1" d="M330.97,1016.62c-2.31,6.21-7.75,9.98-14.22,9.98-8.87,0-15.5-6.72-15.5-16.79s6.64-16.65,15.5-16.65c6.94,0,11.91,4.05,13.88,9.11l-5.91,1.75c-1.37-2.48-3.98-4.83-8.22-4.83-5.53,0-9.25,4.23-9.25,10.67s3.94,10.72,9.21,10.72c4.24,0,7.24-2.39,8.65-5.61l5.87,1.66Z"/>
    <path class="cls-1" d="M352.6,993.16c9.04,0,15.72,6.81,15.72,16.75s-6.68,16.7-15.72,16.7-15.72-6.81-15.72-16.7,6.68-16.75,15.72-16.75ZM352.6,1020.58c5.53,0,9.72-4.09,9.72-10.67s-4.2-10.72-9.72-10.72-9.72,4.14-9.72,10.72,4.2,10.67,9.72,10.67Z"/>
    <path class="cls-1" d="M381.63,1004.47h-.13s.09,3.91.09,8v13.53h-5.95v-32.2h6.04l14.35,21.21h.13s-.09-4.05-.09-7.59v-13.62h5.95v32.2h-6.04l-14.35-21.53Z"/>
    <path class="cls-1" d="M414.95,1016.16c.47,3.17,3.08,4.83,6.77,4.83,3.25,0,5.27-1.33,5.27-4,0-3.82-4.03-3.77-7.75-4.74-4.07-1.01-9.17-2.9-9.17-9.62,0-6.26,4.37-9.48,10.96-9.48,5.91,0,10.19,2.62,11.78,8.28l-5.7,1.61c-.77-2.71-2.74-4.23-6.21-4.23s-4.75,1.38-4.75,3.63c0,3.22,3.17,3.82,7.37,4.74,4.45.92,9.51,2.76,9.51,9.8,0,6.39-4.2,9.61-11.31,9.61-5.14,0-11.01-1.7-12.46-8.79l5.7-1.66Z"/>
    <path class="cls-1" d="M465.36,1011.97c0,9.48-4.88,14.63-12.68,14.63s-12.72-5.15-12.72-14.63v-18.17h6.04v17.99c0,6.03,2.23,8.79,6.72,8.79s6.72-2.76,6.72-8.79v-17.99h5.91v18.17Z"/>
    <path class="cls-1" d="M473.71,993.8h5.95v26.27h14.22v5.93h-20.17v-32.2Z"/>
    <path class="cls-1" d="M510.32,999.74v26.27h-5.95v-26.27h-9.55v-5.94h25.06v5.94h-9.55Z"/>
    <path class="cls-1" d="M529.08,1019.56l-2.27,6.44h-6.3l11.99-32.2h6.72l11.99,32.2h-6.38l-2.27-6.44h-13.49ZM537.99,1006.68c-1.03-2.76-2.06-5.61-2.1-5.66h-.13s-1.07,2.85-2.1,5.66l-2.53,7.08h9.34l-2.48-7.08Z"/>
    <path class="cls-1" d="M563.85,1004.47h-.13s.09,3.91.09,8v13.53h-5.95v-32.2h6.04l14.35,21.21h.13s-.09-4.05-.09-7.59v-13.62h5.95v32.2h-6.04l-14.35-21.53Z"/>
    <path class="cls-1" d="M621.24,1016.62c-2.31,6.21-7.75,9.98-14.22,9.98-8.87,0-15.5-6.72-15.5-16.79s6.64-16.65,15.5-16.65c6.94,0,11.91,4.05,13.88,9.11l-5.91,1.75c-1.37-2.48-3.98-4.83-8.22-4.83-5.53,0-9.25,4.23-9.25,10.67s3.94,10.72,9.21,10.72c4.24,0,7.24-2.39,8.65-5.61l5.87,1.66Z"/>
    <path class="cls-1" d="M642.83,1026h-6v-13.11l-11.31-19.09,6.9-.05,5.31,9.39c1.24,2.16,2.18,3.91,2.23,3.96h.13s.94-1.79,2.18-3.91l5.48-9.39h6.38l-11.31,19.09v13.11Z"/>
    <path class="cls-1" d="M680.56,999.74v7.68h11.78v5.98h-11.78v12.61h-5.95v-32.2h20.99v5.94h-15.03Z"/>
    <path class="cls-1" d="M703.12,993.8h5.95v32.2h-5.95v-32.2Z"/>
    <path class="cls-1" d="M727.96,1014.69h-4.28v11.32h-5.95v-32.2h10.62c7.41,0,11.74,4.05,11.74,10.58,0,4.65-2.23,7.77-6.08,9.06l7.07,12.56h-7.07l-6.04-11.32ZM728.78,1009.53c3.25,0,5.23-1.47,5.23-4.83s-1.88-5.06-5.31-5.06h-5.01v9.89h5.1Z"/>
    <path class="cls-1" d="M771.43,1015.93c0-6.72.09-11.46.09-11.5h-.09s-1.37,2.81-3.25,6.39l-3.77,7.22h-3.38l-3.77-7.13c-1.93-3.68-3.21-6.44-3.26-6.49h-.13s.09,4.78.09,11.5v10.08h-5.95v-32.2h6.34l8.4,16.15h.13l8.44-16.15h6.08v32.2h-5.95v-10.08Z"/>
  </g>
  <g>
    <g>
      <path class="cls-1" d="M375.15,892.19c0,1.3-.25,2.53-.74,3.71-.49,1.18-1.17,2.21-2.04,3.09-.87.88-1.89,1.59-3.05,2.12-1.17.53-2.42.79-3.76.79-1.15,0-2.31-.16-3.49-.47-1.18-.31-2.25-.85-3.2-1.62-.95-.77-1.73-1.78-2.34-3.03-.61-1.26-.92-2.85-.92-4.77v-23.09c0-1.37.24-2.65.71-3.83.47-1.18,1.14-2.2,2.01-3.06.87-.86,1.9-1.54,3.11-2.03,1.2-.49,2.54-.74,4-.74,1.38,0,2.66.25,3.85.74,1.18.49,2.21,1.18,3.08,2.06.87.88,1.55,1.94,2.04,3.18.49,1.24.74,2.58.74,4.04v2.36h-6.04v-2c0-1.18-.34-2.2-1.01-3.06-.67-.86-1.58-1.3-2.72-1.3-1.5,0-2.5.46-2.99,1.38-.49.92-.74,2.09-.74,3.5v21.44c0,1.22.27,2.24.8,3.06.53.82,1.49,1.24,2.87,1.24.39,0,.82-.07,1.27-.21.45-.14.87-.36,1.24-.68.38-.31.68-.75.92-1.3.24-.55.35-1.24.35-2.06v-2.06h6.04v2.59Z"/>
      <path class="cls-1" d="M395.52,869.51c0-1.69.3-3.18.89-4.48.59-1.3,1.37-2.37,2.34-3.21.97-.84,2.05-1.48,3.26-1.91,1.2-.43,2.42-.65,3.64-.65s2.44.22,3.64.65c1.2.43,2.29,1.07,3.26,1.91.97.84,1.75,1.91,2.34,3.21s.89,2.79.89,4.48v22.15c0,1.73-.3,3.23-.89,4.51-.59,1.28-1.37,2.34-2.34,3.18-.97.84-2.05,1.48-3.26,1.91-1.2.43-2.42.65-3.64.65s-2.44-.22-3.64-.65-2.29-1.07-3.26-1.91c-.97-.84-1.75-1.9-2.34-3.18-.59-1.28-.89-2.78-.89-4.51v-22.15ZM401.56,891.66c0,1.45.4,2.52,1.21,3.21.81.69,1.77,1.03,2.87,1.03s2.06-.34,2.87-1.03c.81-.69,1.21-1.76,1.21-3.21v-22.15c0-1.45-.41-2.52-1.21-3.21-.81-.69-1.77-1.03-2.87-1.03s-2.06.34-2.87,1.03c-.81.69-1.21,1.76-1.21,3.21v22.15Z"/>
      <path class="cls-1" d="M436.66,859.61h5.8l9.12,25.27h.12v-25.27h6.04v41.94h-5.68l-9.24-25.21h-.12v25.21h-6.04v-41.94Z"/>
      <path class="cls-1" d="M498.53,871.69h-6.04v-1.35c0-1.37-.33-2.56-.98-3.56-.65-1-1.75-1.5-3.29-1.5-.83,0-1.51.16-2.04.47-.53.31-.95.72-1.24,1.21-.3.49-.5,1.06-.62,1.71-.12.65-.18,1.33-.18,2.03,0,.82.03,1.52.09,2.09.06.57.21,1.06.44,1.47.24.41.58.78,1.04,1.09.45.31,1.07.63,1.86.94l4.62,1.83c1.34.51,2.43,1.11,3.26,1.8.83.69,1.47,1.49,1.92,2.42.45.92.76,1.98.92,3.18.16,1.2.24,2.56.24,4.09,0,1.77-.18,3.41-.53,4.92s-.94,2.81-1.75,3.89c-.81,1.08-1.89,1.93-3.23,2.56-1.34.63-2.98.94-4.91.94-1.46,0-2.82-.26-4.08-.77-1.26-.51-2.35-1.21-3.26-2.09-.91-.88-1.63-1.93-2.16-3.15-.53-1.22-.8-2.53-.8-3.95v-2.24h6.04v1.88c0,1.1.33,2.09.98,2.97s1.75,1.33,3.29,1.33c1.03,0,1.83-.15,2.4-.44s1.01-.71,1.3-1.24.48-1.19.56-1.97c.08-.79.12-1.65.12-2.59,0-1.1-.04-2-.12-2.71-.08-.71-.25-1.28-.5-1.71-.26-.43-.61-.79-1.07-1.06-.45-.27-1.06-.57-1.81-.88l-4.32-1.77c-2.61-1.06-4.35-2.46-5.24-4.21-.89-1.75-1.33-3.94-1.33-6.57,0-1.57.22-3.06.65-4.48s1.08-2.63,1.92-3.65c.85-1.02,1.92-1.83,3.23-2.44,1.3-.61,2.82-.91,4.56-.91,1.5,0,2.87.28,4.11.83s2.31,1.28,3.2,2.18c.89.9,1.57,1.92,2.04,3.03s.71,2.27.71,3.45v2.95Z"/>
      <path class="cls-1" d="M538.37,892.13c0,1.38-.26,2.65-.77,3.83-.51,1.18-1.21,2.21-2.1,3.09-.89.88-1.92,1.58-3.11,2.09-1.18.51-2.45.77-3.79.77s-2.61-.26-3.79-.77c-1.18-.51-2.22-1.21-3.11-2.09-.89-.88-1.59-1.91-2.1-3.09-.51-1.18-.77-2.45-.77-3.83v-32.52h6.04v31.93c0,1.49.35,2.59,1.07,3.3.71.71,1.6,1.06,2.66,1.06s1.95-.35,2.66-1.06c.71-.71,1.07-1.81,1.07-3.3v-31.93h6.04v32.52Z"/>
      <path class="cls-1" d="M559.86,859.61h6.04v35.93h11.96v6.01h-18v-41.94Z"/>
      <path class="cls-1" d="M597.16,865.27h-6.99v-5.66h20.01v5.66h-6.99v36.29h-6.04v-36.29Z"/>
      <path class="cls-1" d="M632.09,859.61h5.03l9.41,41.94h-6.04l-1.78-9.01h-8.23l-1.78,9.01h-6.04l9.41-41.94ZM634.63,871.69h-.12l-2.96,15.2h6.04l-2.96-15.2Z"/>
      <path class="cls-1" d="M665.06,859.61h5.8l9.12,25.27h.12v-25.27h6.04v41.94h-5.68l-9.24-25.21h-.12v25.21h-6.04v-41.94Z"/>
      <path class="cls-1" d="M711.36,865.27h-6.99v-5.66h20.01v5.66h-6.99v36.29h-6.04v-36.29Z"/>
    </g>
    <line class="cls-2" x1="736.09" y1="880.58" x2="883.15" y2="880.58"/>
    <line class="cls-2" x1="196.85" y1="880.58" x2="343.91" y2="880.58"/>
  </g>
</svg>